<svg xmlns="http://www.w3.org/2000/svg" width="16" height="17" fill="none" viewBox="0 0 16 18">
  <g clip-path="url(#a)">
    <path fill="#FDFBF0" fill-rule="evenodd" d="M7.187 16.644h1.679c.333 0 .654-.104.89-.291s.369-.44.369-.704V5.696c0-.264-.133-.517-.37-.703a1.445 1.445 0 0 0-.89-.292H7.188c-.334 0-.654.105-.89.292-.236.186-.37.44-.37.703v9.953c0 .264.134.517.37.704.236.187.556.291.89.291Zm5.875 0h1.679c.334 0 .654-.104.89-.291s.369-.44.369-.704V1.052c0-.264-.133-.517-.369-.704a1.445 1.445 0 0 0-.89-.292h-1.679c-.334 0-.654.105-.89.292s-.369.44-.369.704v14.597c0 .264.133.517.369.704.236.187.556.291.89.291Z" clip-rule="evenodd"/>
    <path fill="#FDFBF0" d="M2.938 16.644H1.259c-.334 0-.654-.104-.89-.291S0 15.913 0 15.649V9.677c0-.264.133-.517.369-.703.236-.187.556-.292.89-.292h1.679c.334 0 .654.105.89.292.236.186.369.44.369.703v5.972c0 .264-.133.517-.369.704a1.445 1.445 0 0 1-.89.291Z"/>
  </g>
  <defs>
    <clipPath id="a">
      <path fill="#fff" d="M0 0h16v16.63H0z" transform="translate(0 .018)"/>
    </clipPath>
  </defs>
</svg>
