<svg xmlns="http://www.w3.org/2000/svg" width="16" height="17" fill="none" viewBox="0 0 16 17">
  <g clip-path="url(#a)">
    <path stroke="#FDFBF0" d="M2.938 16.312H1.259a.947.947 0 0 1-.58-.184C.544 16.02.5 15.905.5 15.816V9.845c0-.089.044-.205.179-.312a.947.947 0 0 1 .58-.184h1.679c.234 0 .442.075.58.184.135.107.179.223.179.312v5.971c0 .089-.044.205-.18.312a.947.947 0 0 1-.58.184Zm5.928 0h-1.68a.947.947 0 0 1-.58-.184c-.134-.107-.178-.223-.178-.312V5.864c0-.089.044-.205.179-.312a.947.947 0 0 1 .58-.184h1.679c.234 0 .442.075.58.184.135.107.179.223.179.312v9.952c0 .089-.044.205-.18.312a.947.947 0 0 1-.58.184Zm5.875 0h-1.679a.947.947 0 0 1-.58-.184c-.135-.107-.179-.223-.179-.312V1.22c0-.088.044-.205.18-.312a.948.948 0 0 1 .58-.183h1.678c.234 0 .442.074.58.183.135.107.179.224.179.312v14.597c0 .089-.044.205-.179.312a.947.947 0 0 1-.58.184Z"/>
    <path fill="#FDFBF0" d="M2.938 16.812H1.259c-.334 0-.654-.105-.89-.292-.236-.186-.369-.44-.369-.704V9.845c0-.264.133-.517.369-.704.236-.187.556-.292.89-.292h1.679c.334 0 .654.105.89.292s.369.44.369.704v5.971c0 .264-.133.518-.369.704a1.446 1.446 0 0 1-.89.292Z"/>
    <path fill="#FDFBF0" fill-rule="evenodd" d="M8.866 16.812h-1.68c-.333 0-.653-.105-.89-.292-.235-.186-.368-.44-.368-.704V5.864c0-.264.133-.518.369-.704.236-.187.556-.292.89-.292h1.679c.333 0 .654.105.89.292.236.186.369.44.369.704v9.952c0 .264-.133.518-.37.704a1.446 1.446 0 0 1-.89.292Z" clip-rule="evenodd"/>
  </g>
  <defs>
    <clipPath id="a">
      <path fill="#fff" d="M0 0h16v16.63H0z" transform="translate(0 .185)"/>
    </clipPath>
  </defs>
</svg>
