<svg xmlns="http://www.w3.org/2000/svg" width="67" height="65" fill="none" viewBox="0 0 67 65">
  <mask id="a" fill="#fff">
    <path fill-rule="evenodd" d="M35.232 1c-.77-1.333-2.694-1.333-3.464 0l-4.619 8H10C4.477 9 0 13.477 0 19v36c0 5.523 4.477 10 10 10h47c5.523 0 10-4.477 10-10V19c0-5.523-4.477-10-10-10H39.85l-4.618-8Z" clip-rule="evenodd"/>
  </mask>
  <path fill="#242422" fill-rule="evenodd" d="M35.232 1c-.77-1.333-2.694-1.333-3.464 0l-4.619 8H10C4.477 9 0 13.477 0 19v36c0 5.523 4.477 10 10 10h47c5.523 0 10-4.477 10-10V19c0-5.523-4.477-10-10-10H39.85l-4.618-8Z" clip-rule="evenodd"/>
  <path fill="#FDFBF0" d="m31.768 1-1.732-1 1.732 1Zm3.464 0 1.732-1-1.732 1ZM27.15 9v2h1.155l.577-1-1.732-1Zm12.702 0-1.732 1 .577 1h1.155V9ZM33.5 2l3.464-2c-1.54-2.667-5.388-2.667-6.928 0L33.5 2Zm-4.619 8L33.5 2l-3.464-2-4.619 8 3.464 2ZM10 11h17.15V7H10v4Zm-8 8a8 8 0 0 1 8-8V7C3.373 7-2 12.373-2 19h4Zm0 36V19h-4v36h4Zm8 8a8 8 0 0 1-8-8h-4c0 6.627 5.373 12 12 12v-4Zm47 0H10v4h47v-4Zm8-8a8 8 0 0 1-8 8v4c6.627 0 12-5.373 12-12h-4Zm0-36v36h4V19h-4Zm-8-8a8 8 0 0 1 8 8h4c0-6.627-5.373-12-12-12v4Zm-17.15 0H57V7H39.85v4ZM33.5 2l4.619 8 3.464-2-4.619-8L33.5 2Z" mask="url(#a)"/>
</svg>
